HIERARCHY
ROOT Hips
{
	OFFSET 0.00000 0.00000 0.00000
	CHANNELS 6 Xposition Yposition Zposition Zrotation Yrotation Xrotation 
	JOINT LHipJoint
	{
		OFFSET 0 0 0
		CHANNELS 3 Zrotation Yrotation Xrotation
		JOINT LeftHip
		{
			OFFSET 1.60223 -1.58443 0.78595
			CHANNELS 3 Zrotation Yrotation Xrotation
			JOINT LeftKnee
			{
				OFFSET 2.21690 -6.09089 0.00000
				CHANNELS 3 Zrotation Yrotation Xrotation
				JOINT LeftAnkle
				{
					OFFSET 2.34805 -6.45122 0.00000
					CHANNELS 3 Zrotation Yrotation Xrotation
					JOINT LeftToe
					{
						OFFSET 0.35452 -0.97402 1.38549
						CHANNELS 3 Zrotation Yrotation Xrotation
						End Site
						{
							OFFSET 0.00000 -0.00000 0.82816
						}
					}
				}
			}
		}
	}
	JOINT RHipJoint
	{
		OFFSET 0 0 0
		CHANNELS 3 Zrotation Yrotation Xrotation
		JOINT RightHip
		{
			OFFSET -1.56524 -1.58443 0.78595
			CHANNELS 3 Zrotation Yrotation Xrotation
			JOINT RightKnee
			{
				OFFSET -2.15558 -5.92241 0.00000
				CHANNELS 3 Zrotation Yrotation Xrotation
				JOINT RightAnkle
				{
					OFFSET -2.35077 -6.45870 0.00000
					CHANNELS 3 Zrotation Yrotation Xrotation
					JOINT RightToe
					{
						OFFSET -0.26910 -0.73935 1.33295
						CHANNELS 3 Zrotation Yrotation Xrotation
						End Site
						{
							OFFSET -0.00000 -0.00000 0.75962
						}
					}
				}
			}
		}
	}
	JOINT lowerback
	{
		OFFSET 0 0 0
		CHANNELS 3 Zrotation Yrotation Xrotation
		JOINT Chest
		{
			OFFSET -0.05489 1.97104 -0.02993
			CHANNELS 3 Zrotation Yrotation Xrotation
			JOINT Chest2
			{
				OFFSET -0.00702 1.94230 0.13626
				CHANNELS 3 Zrotation Yrotation Xrotation
				JOINT lowerneck
				{
					OFFSET 0 0 0
					CHANNELS 3 Zrotation Yrotation Xrotation
					JOINT Neck
					{
						OFFSET -0.07858 1.62869 -0.02510
						CHANNELS 3 Zrotation Yrotation Xrotation
						JOINT Head
						{
							OFFSET 0.13978 1.59213 -0.29859
							CHANNELS 3 Zrotation Yrotation Xrotation
							End Site
							{
								OFFSET 0.05353 1.64420 -0.10000
							}
						}
					}
				}
				JOINT LeftCollar
				{
					OFFSET 0 0 0
					CHANNELS 3 Zrotation Yrotation Xrotation
					JOINT LeftShoulder
					{
						OFFSET 3.48263 1.15278 0.52941
CHANNELS 3 Zrotation Xrotation Yrotation
						JOINT LeftElbow
						{
OFFSET 0 -4.592070 -0.000000
CHANNELS 3 Zrotation Xrotation Yrotation
							JOINT LeftWrist
							{
OFFSET 0 -2.981090 -0.000000
CHANNELS 3 Zrotation Xrotation Yrotation
								JOINT lhand
								{
									OFFSET 0 0 0
CHANNELS 3 Zrotation Xrotation Yrotation
									JOINT LFingers
									{
OFFSET 0 -0.480200 -0.000000
CHANNELS 3 Zrotation Xrotation Yrotation
										End Site
										{
OFFSET 0 -0.387150 -0.000000
										}
									}
								}
								JOINT LThumb
								{
OFFSET 0 0.000000 0.000000
CHANNELS 3 Zrotation Xrotation Yrotation
									End Site
									{
OFFSET 0 -0.393060 0.393060
									}
								}
							}
						}
					}
				}
				JOINT RightCollar
				{
					OFFSET 0 0 0
					CHANNELS 3 Zrotation Yrotation Xrotation
					JOINT RightShoulder
					{
						OFFSET -3.52496 1.12722 0.24548
CHANNELS 3 Zrotation Xrotation Yrotation
						JOINT RightElbow
						{
OFFSET 0 -4.765080 -0.000000
CHANNELS 3 Zrotation Xrotation Yrotation
							JOINT RightWrist
							{
OFFSET 0 -2.789020 -0.000000
CHANNELS 3 Zrotation Xrotation Yrotation
								JOINT rhand
								{
									OFFSET 0 0 0
CHANNELS 3 Zrotation Xrotation Yrotation
									JOINT RFingers
									{
OFFSET 0 -0.721300 -0.000000
CHANNELS 3 Zrotation Xrotation Yrotation
										End Site
										{
OFFSET 0 -0.581530 -0.000000
										}
									}
								}
								JOINT RThumb
								{
OFFSET 0 0.000000 0.000000
CHANNELS 3 Zrotation Xrotation Yrotation
									End Site
									{
OFFSET 0 -0.590410 0.590410
									}
								}
							}
						}
					}
				}
			}
		}
	}
}
MOTION
Frames: 11
Frame Time: 0.008333333333333333
0.533978 15.934058 6.037154 -1082.430835 -709.802429 7.694069 0.000000 0.000000 0.000000 -4.598579 -34.796612 -27.971862 10.184529 17.502322 60.089772 0.326290 -15.917855 -14.571460 11.465181 -18.155212 -64.283093 0.000000 0.000000 0.000000 18.646973 15.419371 -11.174195 -1.691939 -8.187961 23.288950 -0.262404 8.895480 -10.535387 -13.366465 -18.910362 70.259757 -4.188471 4.306884 6.967880 -2.881063 4.965357 -10.432170 -1.922734 2.594990 -15.647396 -13.679626 -11.308172 6.440277 33.349973 -17.806079 3.093841 12.570629 -9.032889 4.332310 0.000000 0.000000 0.000000 6.169427 1.135396 -77.587368 122.602292 -55.575429 87.815004 79.535438 92.579792 -52.295841 0.000000 0.000000 0.000000 -7.125000 0.000000 0.000000 161.340000 -67.515396 169.809465 0.000000 0.000000 0.000000 -130.072591 -25.438189 -100.521534 -90.753762 -59.997750 -60.652791 -21.135519 -17.716937 -44.564414 0.000000 0.000000 0.000000 7.125000 0.000000 0.000000 8.265065 -16.167139 10.346107
1.863810 16.189033 5.970316 -1081.929082 -738.599656 6.889360 0.000000 0.000000 0.000000 -9.977265 -33.944852 -16.514082 6.980214 15.311443 48.792951 -2.394650 -27.723709 0.666716 9.422748 -17.072140 -57.540796 0.000000 0.000000 0.000000 13.837597 14.926990 -14.471301 -1.325511 -7.290826 20.580059 0.912472 21.602109 -6.834607 -12.998874 -18.781576 69.121850 -4.565502 4.085191 9.807000 -1.067158 4.571886 -11.635451 0.099819 2.550291 -19.311622 -10.822681 -13.257761 6.463427 24.874685 -21.193038 8.894998 8.552732 -10.445358 5.496800 0.000000 0.000000 0.000000 4.404457 7.100657 -81.568967 122.189152 -55.697554 87.473922 98.607098 -90.092672 45.503099 0.000000 0.000000 0.000000 -7.125000 0.000000 0.000000 160.760024 -51.953386 176.567659 0.000000 0.000000 0.000000 -120.652272 -27.160059 -93.448551 -96.120624 -59.856388 -65.298023 -33.112134 -14.061077 -26.958841 0.000000 0.000000 0.000000 7.125000 0.000000 0.000000 -1.752564 -1.251599 -1.758156
3.098492 16.227924 6.000821 -1080.520768 -767.692180 6.258191 0.000000 0.000000 0.000000 -18.068839 -10.153485 -16.020509 5.630236 14.058892 43.476580 -0.191052 -16.062456 -9.226791 9.704994 -17.240346 -58.497505 0.000000 0.000000 0.000000 13.892574 15.113002 -20.660226 -1.971943 -8.804428 25.187467 0.448407 -11.435274 -3.331816 -7.506710 -15.469976 50.273123 -5.890143 3.326407 11.480603 0.306140 3.262648 -11.760661 2.728026 2.273137 -20.813749 -11.118021 -13.665957 9.350632 21.298154 -22.194768 10.735990 7.538181 -11.241880 5.360901 0.000000 0.000000 0.000000 4.090478 6.877091 -82.186262 118.751321 -56.627565 84.616758 116.919900 -116.034831 43.052574 0.000000 0.000000 0.000000 -7.125000 0.000000 0.000000 168.307122 -34.866836 -177.056040 0.000000 0.000000 0.000000 -112.522285 -31.171850 -81.484643 -96.823649 -59.822801 -65.905933 -35.997905 -4.848994 -9.885497 0.000000 0.000000 0.000000 7.125000 0.000000 0.000000 -6.306227 17.873901 -4.072915
4.209860 16.309207 6.135017 -1079.677913 -794.030367 7.137113 0.000000 0.000000 0.000000 -23.844243 1.568890 -22.344423 5.244104 13.653317 41.866426 0.462195 -4.813242 -12.201837 9.878874 -17.341135 -59.082749 0.000000 0.000000 0.000000 14.763016 19.253497 -21.910250 -3.171405 -10.960815 32.155026 1.296019 -20.590130 -1.183618 -1.709333 -8.221562 23.395491 -4.840702 1.938915 10.740738 0.523583 1.530219 -11.452103 2.947897 1.312525 -19.601959 -12.823077 -12.361311 11.916475 20.301575 -21.528621 13.107093 7.752197 -11.248092 5.615930 0.000000 0.000000 0.000000 3.595250 1.946383 -79.852275 111.780759 -58.128058 78.743971 104.342437 -93.439448 55.027544 0.000000 0.000000 0.000000 -7.125000 0.000000 0.000000 173.096544 -49.774204 111.301360 0.000000 0.000000 0.000000 -112.837297 -35.805009 -79.596462 -97.116741 -59.807349 -66.159210 -32.816234 1.535723 4.069068 0.000000 0.000000 0.000000 7.125000 0.000000 0.000000 -5.095068 34.763800 -1.315119
5.060763 16.131003 6.371705 -1087.035743 -821.278207 13.896567 0.000000 0.000000 0.000000 -29.052523 10.162864 -30.740394 6.190966 14.610322 45.742404 0.255944 6.835082 -14.502572 9.347718 -17.026334 -57.285077 0.000000 0.000000 0.000000 13.472638 14.817452 -22.467154 -4.995870 -13.377657 40.801805 2.884310 -28.511730 -9.525820 -2.115680 9.101064 -26.113464 -3.659797 0.565299 10.741911 -0.756437 -0.360976 -10.325712 1.317121 0.103359 -17.892218 -15.912560 -9.915989 14.043342 20.225897 -20.215129 16.703871 8.528339 -11.104096 6.452109 0.000000 0.000000 0.000000 2.944378 -0.002141 -75.182040 107.026013 -58.875020 74.689227 -23.025623 25.899038 18.693773 0.000000 0.000000 0.000000 -7.125000 0.000000 0.000000 -31.257113 11.166666 -29.724447 0.000000 0.000000 0.000000 -113.647823 -41.019355 -82.308738 -91.644103 -59.986211 -61.423707 -15.106781 0.741089 18.003495 0.000000 0.000000 0.000000 7.125000 0.000000 0.000000 12.568006 48.147833 -1.093228
5.595597 16.107744 6.435258 -1084.655326 -849.243880 9.351822 0.000000 0.000000 0.000000 -31.709459 16.761213 -34.605539 6.632621 15.014450 47.470621 -0.455933 16.550561 -18.489826 9.255789 -16.969481 -56.970583 0.000000 0.000000 0.000000 10.404285 0.977805 -24.427325 -5.361994 -13.780202 42.364171 2.442431 -27.217118 -18.070132 -0.173254 2.644875 -7.293915 -4.419066 -0.369150 9.333618 -2.388855 -1.876017 -8.523812 0.260830 -0.726799 -14.694765 -18.256953 -7.784414 12.766236 19.988749 -19.296681 20.839764 8.872124 -11.085395 8.024171 0.000000 0.000000 0.000000 1.384420 -1.269427 -73.845599 104.243931 -59.219198 72.303193 -27.576845 25.245506 11.169649 0.000000 0.000000 0.000000 -7.125000 0.000000 0.000000 -35.155023 17.366862 -29.256202 0.000000 0.000000 0.000000 -111.142815 -44.492114 -71.799926 -89.758383 -59.999478 -59.790777 9.935564 -16.079921 21.975556 0.000000 0.000000 0.000000 7.125000 0.000000 0.000000 36.783551 48.244729 -3.307265
6.188109 16.225576 6.187738 -1084.192554 -877.313558 6.382357 0.000000 0.000000 0.000000 -29.290275 14.884654 -33.140975 7.256424 15.541634 49.833385 -2.081292 28.771317 -27.566754 7.309571 -15.575141 -50.014876 0.000000 0.000000 0.000000 12.131483 -8.225895 -27.646799 -4.736551 -13.077247 39.664497 5.495704 -37.452383 -18.715352 -0.170798 -2.649335 7.304780 -7.908743 -1.711469 6.216537 -3.085059 -3.840628 -6.179547 1.690972 -1.597558 -9.865589 -20.718511 -6.097518 10.601370 20.679509 -19.002382 22.953841 9.467803 -11.460950 9.348807 0.000000 0.000000 0.000000 -0.531660 -2.210444 -73.792119 103.169232 -59.334362 71.379352 -19.071584 20.031681 -3.208687 0.000000 0.000000 0.000000 -7.125000 0.000000 0.000000 -34.819578 31.285494 -14.154334 0.000000 0.000000 0.000000 -116.550308 -47.409524 -65.245834 -92.561807 -59.974961 -62.218405 30.867271 -19.590510 6.229377 0.000000 0.000000 0.000000 7.125000 0.000000 0.000000 42.756262 32.179290 18.322026
7.029922 16.210637 5.790109 -1079.360835 -903.926992 5.279521 0.000000 0.000000 0.000000 -18.456910 11.939064 -32.642544 9.483129 17.106731 57.743430 -1.829943 27.360052 -26.468603 3.940764 -12.076919 -36.010604 0.000000 0.000000 0.000000 23.466895 -12.634992 -27.825508 -3.070134 -10.804478 31.626932 1.911553 -23.755669 -13.002866 -0.210578 -2.953171 8.148546 -7.363461 -4.283911 1.777086 -2.261907 -5.959029 -5.406363 2.105975 -2.513453 -6.146407 -22.218104 -10.557341 10.289286 19.519170 -16.667127 26.249705 9.975368 -7.736716 10.367815 0.000000 0.000000 0.000000 -0.308660 -0.082612 -73.947670 103.148507 -59.336530 71.361504 -10.292708 19.941743 -15.527085 0.000000 0.000000 0.000000 -7.125000 0.000000 0.000000 -33.588416 42.782324 -2.108281 0.000000 0.000000 0.000000 -127.550324 -47.050862 -69.817118 -95.779581 -59.873229 -65.003121 31.174257 -20.204033 -3.874259 0.000000 0.000000 0.000000 7.125000 0.000000 0.000000 38.879501 23.174636 27.341402
7.713476 15.907516 5.597750 -1079.490367 -931.194728 5.801196 0.000000 0.000000 0.000000 -17.199614 3.647484 -29.546476 11.045687 17.955661 62.927731 0.435262 17.770353 -28.596184 2.179949 -9.123631 -26.260138 0.000000 0.000000 0.000000 23.977883 0.933575 -24.667525 -3.432519 -11.356354 33.500871 0.333107 -11.643044 -10.795512 -0.138855 -2.324153 6.405999 -9.588371 -5.961500 0.256828 -2.380133 -8.025568 -5.523889 3.085369 -3.443386 -4.970899 -18.717247 -9.500877 7.111772 20.232230 -15.653888 28.079458 9.775538 -6.889980 11.066474 0.000000 0.000000 0.000000 -0.802442 3.612454 -70.418497 102.143828 -59.435072 70.496905 -2.219753 22.558517 -24.467506 0.000000 0.000000 0.000000 -7.125000 0.000000 0.000000 -31.686302 51.527388 5.543181 0.000000 0.000000 0.000000 -134.081346 -43.369255 -80.986658 -100.283866 -59.592018 -68.893628 25.573894 -33.443304 -6.175111 0.000000 0.000000 0.000000 7.125000 0.000000 0.000000 35.522184 22.201014 24.573366
8.149694 15.603151 5.372656 -1082.125776 -963.439922 2.220319 0.000000 0.000000 0.000000 -19.912737 -4.870089 -28.262854 12.510148 18.597729 67.596687 1.013434 14.638960 -29.296397 0.233682 -3.078504 -8.500253 0.000000 0.000000 0.000000 23.317526 10.635126 -22.636636 -4.685519 -13.020397 39.445339 -0.057362 4.887557 -5.207456 -0.186539 -2.780962 7.669604 -12.578870 -4.945904 1.362885 -2.532728 -7.056432 -5.943111 4.648010 -2.779855 -5.905934 -13.612798 -6.958884 4.901105 21.536726 -12.670977 28.496054 9.656834 -4.894866 10.523940 0.000000 0.000000 0.000000 1.359680 11.440156 -64.611790 107.725802 -58.777026 75.287757 13.131551 27.965281 -30.208857 0.000000 0.000000 0.000000 -7.125000 0.000000 0.000000 -20.789181 59.634637 7.612400 0.000000 0.000000 0.000000 -129.284153 -40.510362 -85.947413 -104.691469 -59.168068 -72.687567 17.830662 -48.754475 -11.740775 0.000000 0.000000 0.000000 7.125000 0.000000 0.000000 29.951718 18.101780 22.463615
8.627675 15.553190 4.900569 -1098.890885 -994.981260 -15.211281 0.000000 0.000000 0.000000 -16.667543 -11.095148 -30.814090 12.635174 18.645291 67.987190 0.482699 13.699670 -24.267834 0.412265 -4.093985 -11.345038 0.000000 0.000000 0.000000 25.415047 17.216956 -17.132616 -4.612124 -12.932846 39.118108 0.698310 16.020060 -1.682753 -0.124357 -2.265332 6.239919 -12.589292 -3.797121 3.644180 0.808331 -6.004424 -8.687995 8.570897 -1.746075 -10.171645 -11.670594 -2.992251 2.827431 20.104221 -7.305853 30.855892 9.243092 -2.295532 10.414081 0.000000 0.000000 0.000000 0.246469 26.021212 -55.998438 112.728716 -57.954375 79.548345 30.575957 34.003772 -31.150310 0.000000 0.000000 0.000000 -7.125000 0.000000 0.000000 -1.154374 65.058868 0.499760 0.000000 0.000000 0.000000 -118.800121 -44.246140 -81.888528 -110.180753 -58.400170 -77.382802 10.838423 -51.624536 -24.821114 0.000000 0.000000 0.000000 7.125000 0.000000 0.000000 24.078616 6.398790 23.444964
